# xmcd
# 
# Track frame offsets:
#     150
#     18121
#     34862
#     52220
#     60558
#     79041
#     100315
#     124672
#     147057
#     163673
#     171407
#     189917
#     208861
#     219530
# 
# Disc length: 3229
# 
# Revision: 7
# Processed by: cddbd v1.5.2PL0 Copyright (c) Steve Scherf et al.
# Submitted via: fre:ac v1.0.27
# 
DISCID=c40c9b0e
DTITLE=浜崎 あゆみ - Party Queen
DYEAR=2012
DGENRE=J-POP
TTITLE0=01-Party queen
TTITLE1=02-NaNaNa
TTITLE2=03-Shake It♥
TTITLE3=04-taskebab
TTITLE4=05-call
TTITLE5=06-Letter
TTITLE6=07-reminds me
TTITLE7=08-Return Road
TTITLE8=09-Tell me why
TTITLE9=10-a cup of tea
TTITLE10=11-the next LOVE
TTITLE11=12-Eyes, Smoke, Magic
TTITLE12=13-Serenade in A minor
TTITLE13=14-how beautiful you are
EXTD=YEAR: 2012
EXTT0=
EXTT1=
EXTT2=
EXTT3=
EXTT4=
EXTT5=
EXTT6=
EXTT7=
EXTT8=
EXTT9=
EXTT10=
EXTT11=
EXTT12=
EXTT13=
PLAYORDER=
